# xmcd CD database file
#
# Track frame offsets:
#	150
#	14487
#	27290
#	40458
#	54719
#	70292
#	83415
#	99213
#	113195
#	126832
#	137700
#	151535
#	165413
#	179460
#	193507
#	209133
#	223796
#	236975
#	251415
#
# Disc length: 3520 seconds
#
# Revision: 0
# Processed by: cddbd v1.5.1PL0 Copyright (c) Steve Scherf et al.
# Submitted via: CDex 1.51
#
DISCID=0b0dbe13
DTITLE=Wynton Kelly - First Sessions
DYEAR=2004
DGENRE=Jazz
TTITLE0=Blue Moon
TTITLE1=Fine and Dandy
TTITLE2=I found a New Baby
TTITLE3=Cherokee
TTITLE4=Born to be Blue (Alt. Take)
TTITLE5=Where or When
TTITLE6=Moonglow
TTITLE7=If I Should Lose You
TTITLE8=Born to be Blue
TTITLE9=Goodbye
TTITLE10=Foolin' Myself
TTITLE11=There Will Never be Another You
TTITLE12=Do Nothing Till You Hear From Me
TTITLE13=Summertime
TTITLE14=Moonlight in Vermont
TTITLE15=Crazy He Calls Me
TTITLE16=Opus Caprice
TTITLE17=Moonglow (Alt. Take)
TTITLE18=Goodbye (Alt. Take)
EXTD=YEAR: 2004
EXTT0=
EXTT1=
EXTT2=
EXTT3=
EXTT4=
EXTT5=
EXTT6=
EXTT7=
EXTT8=
EXTT9=
EXTT10=
EXTT11=
EXTT12=
EXTT13=
EXTT14=
EXTT15=
EXTT16=
EXTT17=
EXTT18=
PLAYORDER=
